<svg width="500" height="500" viewBox="0 0 500 500" fill="none" xmlns="http://www.w3.org/2000/svg">
<path d="M483.64 265.097C482.56 240.62 460.64 85.6215 251.14 80.0965C93.1133 75.9289 65.14 208.096 51.1401 219.596C37.1401 231.097 11.6401 265.097 16.6401 305.596C24.3561 368.097 125.983 412.432 251.14 418.597C447.14 428.25 488.14 367.097 483.64 265.097Z" fill="white"/>
<path d="M483.64 265.097C482.56 240.62 460.64 85.6215 251.14 80.0965C93.1133 75.9289 65.14 208.096 51.1401 219.596C37.1401 231.097 11.6401 265.097 16.6401 305.596C24.3561 368.097 125.983 412.432 251.14 418.597C447.14 428.25 488.14 367.097 483.64 265.097Z" stroke="black" stroke-width="16"/>
<circle cx="153.14" cy="218.097" r="16" fill="black"/>
<circle cx="286.14" cy="228.097" r="16" fill="black"/>
<path d="M219.07 269.865C200.07 269.251 169.291 251.975 165.57 267.366C161.849 282.756 175.959 302.297 219.07 302.865C262.182 303.433 268.339 274.366 264.07 265.366C259.801 256.366 238.07 270.478 219.07 269.865Z" fill="#FF4D4D"/>
<rect x="204.07" y="286.866" width="40" height="14" rx="2" fill="white"/>
<rect x="208.07" y="268.866" width="30" height="14" rx="2" fill="white"/>
<path d="M219.07 269.865C200.07 269.251 169.291 251.975 165.57 267.366C161.849 282.756 175.959 302.297 219.07 302.865C262.182 303.433 268.339 274.366 264.07 265.366C259.801 256.366 238.07 270.478 219.07 269.865Z" stroke="black" stroke-width="12"/>
<ellipse cx="330.664" cy="261.58" rx="42.3818" ry="17.5" transform="rotate(4.09699 330.664 261.58)" fill="#FFC5D5"/>
<ellipse cx="102.664" cy="239.58" rx="42.3818" ry="17.5" transform="rotate(4.09699 102.664 239.58)" fill="#FFC5D5"/>
</svg>
